<svg width="20" height="20" viewBox="0 0 20 20" fill="none" xmlns="http://www.w3.org/2000/svg">
<g opacity="0.4" clip-path="url(#clip0_4_1780)">
<path d="M9.16675 7.63341V1.66675C5.00008 2.08341 1.66675 5.65841 1.66675 10.0001C1.66675 14.3417 5.00008 17.9167 9.16675 18.3334V12.3667C8.33342 12.0251 7.50008 11.1001 7.50008 10.0001C7.50008 8.90008 8.33342 7.97508 9.16675 7.63341ZM12.3834 9.16675H18.3334C17.9334 5.20841 15.0001 2.05841 10.8334 1.66675V7.63341C11.6667 7.88341 12.1001 8.45008 12.3834 9.16675ZM10.8334 12.3667V18.3334C15.0001 17.9417 17.9334 14.7917 18.3334 10.8334H12.3834C12.1001 11.5501 11.6667 12.1167 10.8334 12.3667Z" fill="#141A18" fill-opacity="0.6"/>
</g>
<defs>
<clipPath id="clip0_4_1780">
<rect width="20" height="20" fill="white"/>
</clipPath>
</defs>
</svg>
