<svg width="123" height="32" viewBox="0 0 123 32" fill="none" xmlns="http://www.w3.org/2000/svg">
<path d="M31.9629 20.31C32.1742 19.4034 31.4535 18.5842 30.5291 18.5842H22.6612C21.2462 18.5842 20.0992 19.7398 20.0992 21.1653V30.5203C20.0992 31.5323 21.0499 32.273 21.985 31.9035C26.944 29.9438 30.7252 25.6207 31.9629 20.31Z" fill="#14B890"/>
<path d="M10.015 31.9035C10.9501 32.273 11.9008 31.5323 11.9008 30.5203V21.1653C11.9008 19.7398 10.7538 18.5842 9.33884 18.5842H1.47094C0.546504 18.5842 -0.174246 19.4034 0.0370707 20.31C1.2748 25.6207 5.05602 29.9438 10.015 31.9035Z" fill="#14B890"/>
<path d="M28.9243 10.3245C30.0145 10.3245 30.7501 9.21247 30.2043 8.26164C27.3695 3.32291 22.0699 0 16 0C9.93007 0 4.63051 3.32291 1.79573 8.26164C1.24996 9.21247 1.98555 10.3245 3.07576 10.3245L28.9243 10.3245Z" fill="#14B890"/>
<path d="M47.6742 24.2448C48.9645 24.2448 49.7098 23.4773 49.7098 22.1202V11.2413H52.5352C53.6142 11.2413 54.3484 10.6406 54.3484 9.59496C54.3484 8.54933 53.6365 7.94865 52.5352 7.94865H42.8243C41.7119 7.94865 41 8.54933 41 9.59496C41 10.6406 41.7342 11.2413 42.8243 11.2413H45.6386V22.1202C45.6386 23.4773 46.3839 24.2448 47.6742 24.2448Z" fill="#2C3030"/>
<path d="M57.6138 24.1781C59.071 24.1781 60.5505 23.4995 61.2068 22.2759H61.2846V22.554C61.3959 23.7109 62.1411 24.2559 63.1868 24.2559C64.3103 24.2559 65.1223 23.6219 65.1223 22.2759V15.6907C65.1223 13.2546 62.9754 11.5972 59.7384 11.5972C56.9575 11.5972 54.933 12.5094 54.4213 14.011C54.3323 14.2446 54.299 14.4449 54.299 14.723C54.299 15.5684 54.9664 16.1579 55.9119 16.1579C56.5126 16.1579 57.0131 15.9354 57.4692 15.4794C58.2256 14.6562 58.6928 14.4115 59.5382 14.4115C60.5727 14.4115 61.2624 14.9454 61.2624 15.9132V16.6029L58.4258 16.7697C55.289 16.9588 53.5426 18.2269 53.5426 20.4961C53.5426 22.6875 55.3557 24.1781 57.6138 24.1781ZM59.0154 21.4639C58.0699 21.4639 57.4358 20.9967 57.4358 20.2292C57.4358 19.5173 58.0254 19.0389 59.0599 18.9611L61.2624 18.8165V19.6507C61.2624 20.7297 60.2167 21.4639 59.0154 21.4639Z" fill="#2C3030"/>
<path d="M73.7115 10.0621C75.6137 10.0621 77.1265 9.10551 77.5937 7.71506C77.6716 7.50371 77.7049 7.29236 77.7049 7.10326C77.7049 6.44696 77.2822 5.95752 76.6148 5.95752C76.1142 5.95752 75.8028 6.21336 75.6026 6.71393C75.2688 7.5482 74.746 8.18225 73.7115 8.18225C72.677 8.18225 72.1653 7.5482 71.8205 6.71393C71.6203 6.21336 71.3088 5.95752 70.8083 5.95752C70.1408 5.95752 69.707 6.44696 69.707 7.10326C69.707 7.29236 69.7515 7.50371 69.8294 7.72618C70.3077 9.11664 71.8094 10.0621 73.7115 10.0621ZM69.8739 24.2559C70.964 24.2559 71.6092 23.9 72.1208 23.0101L75.7472 17.0256H75.8361V22.2759C75.8361 23.5996 76.6259 24.2559 77.7494 24.2559C78.8729 24.2559 79.6738 23.5996 79.6738 22.2648V13.7552C79.6738 12.4537 78.8173 11.6306 77.4824 11.6306C76.4146 11.6306 75.7694 11.9865 75.2355 12.8764L71.6314 18.7275H71.5424V13.6217C71.5424 12.2869 70.7526 11.6306 69.618 11.6306C68.4945 11.6306 67.6936 12.2869 67.6936 13.6106V22.1313C67.6936 23.4328 68.4389 24.2559 69.8739 24.2559Z" fill="#2C3030"/>
<path d="M84.0687 24.2559C85.3034 24.2559 86.0376 23.5218 86.0376 22.2426V14.8008H89.9198V22.2426C89.9198 23.5218 90.6539 24.2559 91.8886 24.2559C93.1234 24.2559 93.8575 23.5218 93.8575 22.2426V14.0222C93.8575 12.6651 93.1123 11.8864 91.8219 11.8864H84.1355C82.8451 11.8864 82.0998 12.6651 82.0998 14.0222V22.2426C82.0998 23.5218 82.834 24.2559 84.0687 24.2559Z" fill="#2C3030"/>
<path d="M98.5348 28.3494C99.6806 28.3494 100.504 27.682 100.504 26.3027V21.9311H100.582C101.171 23.3327 102.506 24.1781 104.286 24.1781C107.3 24.1781 109.069 21.8977 109.069 17.9488C109.069 13.9888 107.289 11.7085 104.23 11.7085C102.484 11.7085 101.171 12.5872 100.559 14.0444H100.481V13.6662C100.481 12.2869 99.6695 11.6306 98.5237 11.6306C97.3669 11.6306 96.5548 12.2869 96.5548 13.6551V26.3027C96.5548 27.682 97.378 28.3494 98.5348 28.3494ZM102.762 21.0968C101.371 21.0968 100.493 19.8732 100.481 17.9488C100.493 16.0356 101.382 14.7897 102.762 14.7897C104.152 14.7897 105.042 16.0244 105.042 17.9488C105.042 19.8732 104.163 21.0968 102.762 21.0968Z" fill="#2C3030"/>
<path d="M116.746 24.2893C120.562 24.2893 122.942 21.9867 122.942 17.9377C122.942 13.9666 120.528 11.5972 116.746 11.5972C112.986 11.5972 110.55 13.9777 110.55 17.9377C110.55 21.9756 112.931 24.2893 116.746 24.2893ZM116.746 21.3972C115.389 21.3972 114.555 20.1624 114.555 17.9488C114.555 15.7686 115.411 14.4894 116.746 14.4894C118.092 14.4894 118.949 15.7686 118.949 17.9488C118.949 20.1624 118.092 21.3972 116.746 21.3972Z" fill="#2C3030"/>
</svg>
