<svg width="20" height="20" viewBox="0 0 20 20" fill="none" xmlns="http://www.w3.org/2000/svg">
<g opacity="0.4" clip-path="url(#clip0_4_1773)">
<path fill-rule="evenodd" clip-rule="evenodd" d="M13.8916 10.9417C15.0333 11.7167 15.8333 12.7667 15.8333 14.1667V16.6666H19.1666V14.1667C19.1666 12.35 16.1916 11.275 13.8916 10.9417Z" fill="#141A18" fill-opacity="0.6"/>
<path d="M7.49984 9.99992C9.34079 9.99992 10.8332 8.50753 10.8332 6.66659C10.8332 4.82564 9.34079 3.33325 7.49984 3.33325C5.65889 3.33325 4.1665 4.82564 4.1665 6.66659C4.1665 8.50753 5.65889 9.99992 7.49984 9.99992Z" fill="#141A18" fill-opacity="0.6"/>
<path fill-rule="evenodd" clip-rule="evenodd" d="M12.4999 9.99992C14.3416 9.99992 15.8333 8.50825 15.8333 6.66659C15.8333 4.82492 14.3416 3.33325 12.4999 3.33325C12.1083 3.33325 11.7416 3.41659 11.3916 3.53325C12.0833 4.39159 12.4999 5.48325 12.4999 6.66659C12.4999 7.84992 12.0833 8.94159 11.3916 9.79992C11.7416 9.91659 12.1083 9.99992 12.4999 9.99992Z" fill="#141A18" fill-opacity="0.6"/>
<path fill-rule="evenodd" clip-rule="evenodd" d="M7.49992 10.8333C5.27492 10.8333 0.833252 11.9499 0.833252 14.1666V16.6666H14.1666V14.1666C14.1666 11.9499 9.72492 10.8333 7.49992 10.8333Z" fill="#141A18" fill-opacity="0.6"/>
</g>
<defs>
<clipPath id="clip0_4_1773">
<rect width="20" height="20" fill="white"/>
</clipPath>
</defs>
</svg>
